<svg width="116" height="20" viewBox="0 0 116 20" fill="none" xmlns="http://www.w3.org/2000/svg">
<path fill-rule="evenodd" clip-rule="evenodd" d="M15.1384 17.7798C15.4461 17.5485 15.5137 17.168 15.326 16.6309L13.7575 11.9832L17.7651 9.12587C18.2304 8.79762 18.418 8.44699 18.2979 8.08143C18.1778 7.71588 17.8251 7.53683 17.2473 7.54429L12.3316 7.58159L10.8382 2.91146C10.6581 2.36686 10.3879 2.08337 9.99764 2.08337C9.6149 2.08337 9.34473 2.36686 9.16461 2.91146L7.67116 7.58159L2.75554 7.54429C2.17767 7.53683 1.82495 7.71588 1.70487 8.08143C1.57729 8.44699 1.77241 8.79762 2.23771 9.12587L6.24526 11.9832L4.67676 16.6309C4.48914 17.168 4.55668 17.5485 4.86438 17.7798C5.17208 18.0185 5.56232 17.9365 6.02762 17.6007L9.99764 14.6987L13.9752 17.6007C14.4405 17.9365 14.8232 18.0185 15.1384 17.7798Z" fill="#FFAA0D"/>
<path fill-rule="evenodd" clip-rule="evenodd" d="M39.1384 17.7798C39.4461 17.5485 39.5137 17.168 39.326 16.6309L37.7575 11.9832L41.7651 9.12587C42.2304 8.79762 42.418 8.44699 42.2979 8.08143C42.1778 7.71588 41.8251 7.53683 41.2473 7.54429L36.3316 7.58159L34.8382 2.91146C34.6581 2.36686 34.3879 2.08337 33.9976 2.08337C33.6149 2.08337 33.3447 2.36686 33.1646 2.91146L31.6712 7.58159L26.7555 7.54429C26.1777 7.53683 25.8249 7.71588 25.7049 8.08143C25.5773 8.44699 25.7724 8.79762 26.2377 9.12587L30.2453 11.9832L28.6768 16.6309C28.4891 17.168 28.5567 17.5485 28.8644 17.7798C29.1721 18.0185 29.5623 17.9365 30.0276 17.6007L33.9976 14.6987L37.9752 17.6007C38.4405 17.9365 38.8232 18.0185 39.1384 17.7798Z" fill="#FFAA0D"/>
<path fill-rule="evenodd" clip-rule="evenodd" d="M63.1384 17.7798C63.4461 17.5485 63.5137 17.168 63.326 16.6309L61.7575 11.9832L65.7651 9.12587C66.2304 8.79762 66.418 8.44699 66.2979 8.08143C66.1778 7.71588 65.8251 7.53683 65.2473 7.54429L60.3316 7.58159L58.8382 2.91146C58.6581 2.36686 58.3879 2.08337 57.9976 2.08337C57.6149 2.08337 57.3447 2.36686 57.1646 2.91146L55.6712 7.58159L50.7555 7.54429C50.1777 7.53683 49.8249 7.71588 49.7049 8.08143C49.5773 8.44699 49.7724 8.79762 50.2377 9.12587L54.2453 11.9832L52.6768 16.6309C52.4891 17.168 52.5567 17.5485 52.8644 17.7798C53.1721 18.0185 53.5623 17.9365 54.0276 17.6007L57.9976 14.6987L61.9752 17.6007C62.4405 17.9365 62.8232 18.0185 63.1384 17.7798Z" fill="#FFAA0D"/>
<path fill-rule="evenodd" clip-rule="evenodd" d="M87.1384 17.7798C87.4461 17.5485 87.5137 17.168 87.326 16.6309L85.7575 11.9832L89.7651 9.12587C90.2304 8.79762 90.418 8.44699 90.2979 8.08143C90.1778 7.71588 89.8251 7.53683 89.2473 7.54429L84.3316 7.58159L82.8382 2.91146C82.6581 2.36686 82.3879 2.08337 81.9976 2.08337C81.6149 2.08337 81.3447 2.36686 81.1646 2.91146L79.6712 7.58159L74.7555 7.54429C74.1777 7.53683 73.8249 7.71588 73.7049 8.08143C73.5773 8.44699 73.7724 8.79762 74.2377 9.12587L78.2453 11.9832L76.6768 16.6309C76.4891 17.168 76.5567 17.5485 76.8644 17.7798C77.1721 18.0185 77.5623 17.9365 78.0276 17.6007L81.9976 14.6987L85.9752 17.6007C86.4405 17.9365 86.8232 18.0185 87.1384 17.7798ZM85.9902 16.2951L82.3804 13.5572C82.2603 13.4602 82.1327 13.408 81.9977 13.4155V3.90361C82.0202 3.90361 82.0352 3.91853 82.0427 3.96329L83.3485 8.28278C83.4461 8.58866 83.6412 8.70802 83.9489 8.70056L88.4893 8.62596C88.5343 8.62596 88.5493 8.62596 88.5568 8.64834C88.5643 8.66326 88.5493 8.67818 88.5193 8.70056L84.7819 11.2669C84.5193 11.4459 84.4592 11.6847 84.5643 11.9756L86.0577 16.2354C86.0652 16.2802 86.0728 16.2877 86.0577 16.31C86.0427 16.325 86.0202 16.3175 85.9902 16.2951Z" fill="#FFAA0D"/>
<path fill-rule="evenodd" clip-rule="evenodd" d="M111.138 17.7798C111.446 17.5485 111.514 17.168 111.326 16.6309L109.758 11.9832L113.765 9.12587C114.23 8.79762 114.418 8.44699 114.298 8.08143C114.178 7.71588 113.825 7.53683 113.247 7.54429L108.332 7.58159L106.838 2.91146C106.658 2.36686 106.388 2.08337 105.998 2.08337C105.615 2.08337 105.345 2.36686 105.165 2.91146L103.671 7.58159L98.7555 7.54429C98.1777 7.53683 97.8249 7.71588 97.7049 8.08143C97.5773 8.44699 97.7724 8.79762 98.2377 9.12587L102.245 11.9832L100.677 16.6309C100.489 17.168 100.557 17.5485 100.864 17.7798C101.172 18.0185 101.562 17.9365 102.028 17.6007L105.998 14.6987L109.975 17.6007C110.44 17.9365 110.823 18.0185 111.138 17.7798ZM109.99 16.2951L106.38 13.5572C106.14 13.3707 105.863 13.3707 105.622 13.5572L102.013 16.2951C101.983 16.3175 101.96 16.325 101.945 16.31C101.93 16.2877 101.938 16.2802 101.945 16.2354L103.439 11.9756C103.544 11.6847 103.484 11.4459 103.221 11.2669L99.4835 8.70056C99.446 8.67818 99.4385 8.66326 99.446 8.64834C99.4535 8.62596 99.4685 8.62596 99.5136 8.62596L104.054 8.70056C104.362 8.70802 104.557 8.58866 104.654 8.28278L105.96 3.96329C105.968 3.91853 105.983 3.90361 105.998 3.90361C106.02 3.90361 106.035 3.91853 106.043 3.96329L107.349 8.28278C107.446 8.58866 107.641 8.70802 107.949 8.70056L112.489 8.62596C112.534 8.62596 112.549 8.62596 112.557 8.64834C112.564 8.66326 112.549 8.67818 112.519 8.70056L108.782 11.2669C108.519 11.4459 108.459 11.6847 108.564 11.9756L110.058 16.2354C110.065 16.2802 110.073 16.2877 110.058 16.31C110.043 16.325 110.02 16.3175 109.99 16.2951Z" fill="#CFD8DC"/>
</svg>
